<svg xmlns="http://www.w3.org/2000/svg" xmlns:xlink="http://www.w3.org/1999/xlink" width="1440" zoomAndPan="magnify" viewBox="0 0 1080 767.999994" height="1024" preserveAspectRatio="xMidYMid meet" version="1.2"><defs><clipPath id="919deeb24a"><path d="M 385.628906 230.398438 L 694.628906 230.398438 L 694.628906 537.898438 L 385.628906 537.898438 Z M 385.628906 230.398438 "/></clipPath><clipPath id="174d62f2e3"><path d="M 291.730469 119.300781 L 798.730469 119.300781 L 798.730469 626.300781 L 291.730469 626.300781 Z M 291.730469 119.300781 "/></clipPath><clipPath id="fcb475c98f"><path d="M 408 310 L 798.730469 310 L 798.730469 590 L 408 590 Z M 408 310 "/></clipPath><clipPath id="e196fd6daa"><path d="M 482 119.300781 L 763 119.300781 L 763 511 L 482 511 Z M 482 119.300781 "/></clipPath><clipPath id="883857433f"><path d="M 291.730469 155 L 683 155 L 683 435 L 291.730469 435 Z M 291.730469 155 "/></clipPath><clipPath id="76cf4eaed8"><path d="M 326 235 L 607 235 L 607 626.300781 L 326 626.300781 Z M 326 235 "/></clipPath></defs><g id="978a3aebef"><g clip-rule="nonzero" clip-path="url(#919deeb24a)"><path style=" stroke:none;fill-rule:nonzero;fill:#f684f4;fill-opacity:1;" d="M 694.570312 380.554688 C 694.425781 375.242188 693.867188 369.921875 693.21875 364.648438 C 692.691406 360.363281 691.75 356.1875 690.988281 351.949219 L 690.667969 350.496094 C 690.3125 348.523438 689.703125 346.550781 689.222656 344.601562 C 687.457031 337.414062 685.015625 330.523438 682.058594 323.742188 C 678.019531 314.492188 673.3125 305.4375 667.613281 297.089844 C 660.046875 286 650.738281 276.003906 640.527344 267.324219 C 636.8125 264.167969 633.078125 261.035156 629.054688 258.269531 C 620.550781 252.425781 611.601562 247.277344 602.117188 243.191406 C 586.882812 236.621094 570.308594 232.628906 553.804688 231.183594 C 549.90625 230.839844 546.011719 230.554688 542.09375 230.539062 C 540.539062 230.535156 538.9375 230.476562 537.386719 230.628906 C 529.761719 231.046875 522.136719 231.546875 514.597656 232.8125 C 480.316406 238.566406 448.496094 255.628906 425.265625 281.566406 C 404.25 305.03125 390.929688 334.773438 387.101562 366.023438 C 386.109375 374.144531 385.652344 382.375 386.101562 390.554688 C 386.757812 402.550781 388.554688 414.359375 391.839844 425.925781 C 399.730469 453.71875 415.796875 479.300781 437.253906 498.589844 C 442.386719 503.207031 447.851562 507.75 453.558594 511.644531 C 473.128906 525.003906 495.195312 532.84375 518.617188 535.988281 C 526.542969 537.054688 534.777344 537.847656 542.773438 537.535156 C 556.011719 537.179688 569.554688 535.410156 582.335938 531.878906 C 588.871094 530.074219 595.300781 527.6875 601.53125 525.035156 C 621.132812 516.691406 638.511719 504.828125 653.167969 489.324219 C 667.796875 473.847656 679.664062 454.25 686.296875 434.007812 C 687.171875 431.328125 688.136719 428.582031 688.742188 425.832031 L 691.042969 416.222656 C 692.960938 407.5625 693.972656 398.5625 694.351562 389.707031 C 694.484375 386.644531 694.652344 383.625 694.570312 380.554688 Z M 682.15625 335.605469 C 684.492188 340.578125 685.894531 345.914062 687.167969 351.238281 C 686.144531 350.140625 685.40625 348.535156 684.597656 347.269531 L 681.0625 342.234375 C 675.371094 334.722656 668.3125 328.992188 660.640625 323.644531 C 640.453125 310.164062 614.316406 304.398438 590.316406 308.183594 C 586.382812 308.804688 582.367188 309.632812 578.539062 310.722656 L 574.1875 312.0625 C 573.421875 312.328125 572.285156 312.878906 571.5 312.945312 C 570.992188 312.988281 569.78125 312.300781 569.304688 312.097656 L 563.511719 309.757812 C 562.066406 309.230469 560.480469 308.707031 558.96875 308.402344 L 558.839844 308.378906 C 561.980469 306.257812 565.355469 304.636719 568.792969 303.074219 C 575.816406 299.886719 583.21875 297.449219 590.804688 296.007812 C 596.023438 295.015625 601.238281 294.566406 606.519531 294.167969 C 610.1875 293.882812 613.988281 294.046875 617.65625 294.355469 C 630.59375 295.445312 643.605469 299.632812 654.671875 306.445312 C 658.3125 308.6875 661.894531 311.175781 665.101562 314.003906 C 668.238281 316.769531 671.097656 319.9375 673.789062 323.128906 C 677.039062 326.980469 680.003906 331.03125 682.15625 335.605469 Z M 658.074219 291.261719 C 661.898438 295.339844 665.023438 300.136719 668.027344 304.832031 L 661.386719 299.121094 C 642.847656 284.949219 618.777344 279.875 595.871094 283.066406 C 580.167969 285.378906 565.535156 291.335938 552.5625 300.449219 L 546.289062 305.082031 L 544.070312 306.890625 C 543.910156 307.023438 543.46875 307.449219 543.285156 307.507812 C 543.089844 307.566406 542.53125 307.5 542.308594 307.5 L 539.417969 307.5 L 534.648438 307.753906 C 533.351562 307.808594 532.042969 307.761719 530.753906 307.898438 L 530.613281 307.914062 L 534.992188 302.417969 C 548.730469 286.828125 567.863281 275.425781 588.285156 271.417969 C 591.957031 270.695312 595.832031 270.316406 599.5625 270.078125 C 606.921875 269.519531 614.804688 270.453125 621.988281 272.046875 C 626.832031 273.121094 631.589844 274.789062 636.144531 276.746094 C 644.207031 280.21875 652.035156 284.808594 658.078125 291.261719 Z M 511.449219 237.191406 C 517.136719 235.457031 523.34375 234.648438 529.265625 234.328125 L 532.15625 234.265625 L 523.292969 237.582031 C 492.207031 251.328125 471.996094 284.03125 471.816406 317.730469 C 471.789062 323.253906 472.125 328.710938 472.972656 334.171875 C 473.324219 336.4375 473.710938 338.734375 474.253906 340.960938 C 474.386719 341.503906 474.996094 342.914062 474.960938 343.433594 C 474.898438 344.34375 472.953125 347.148438 472.394531 348.191406 C 471.1875 350.441406 470.035156 352.894531 469.109375 355.273438 L 467.886719 352.726562 C 466.394531 348.960938 464.917969 345.226562 463.75 341.339844 C 462.195312 336.183594 461.09375 330.699219 460.328125 325.371094 L 459.851562 320.398438 L 459.648438 318.152344 C 458.425781 296.261719 466.421875 273.433594 481.078125 257.132812 C 489.230469 248.0625 499.726562 240.765625 511.453125 237.191406 Z M 422.964844 290.667969 C 426.410156 285.59375 430.433594 281.234375 434.773438 276.933594 C 434.792969 277.597656 433.691406 278.867188 433.328125 279.46875 C 431.023438 283.222656 429.019531 287.175781 427.53125 291.332031 C 421.117188 309.214844 422.640625 330.730469 429.707031 348.199219 C 433.917969 358.617188 440.132812 368.253906 447.519531 376.695312 C 451.023438 380.703125 454.84375 384.410156 458.835938 387.929688 L 463.035156 391.433594 C 463.367188 391.6875 464.617188 392.402344 464.769531 392.695312 C 464.976562 393.09375 464.980469 394.0625 465.042969 394.527344 L 465.707031 398.539062 L 467.09375 405.316406 L 460.410156 401.445312 C 453.429688 397.164062 446.71875 392.152344 440.917969 386.359375 C 437.253906 382.699219 433.667969 378.808594 430.554688 374.660156 C 419.570312 360.035156 412.6875 342.203125 412.726562 323.804688 C 412.75 312.378906 416.554688 300.117188 422.964844 290.664062 Z M 397.195312 343.3125 C 397.648438 337.816406 399.054688 332.328125 400.890625 327.140625 C 401.8125 324.539062 403.046875 322.113281 404.113281 319.578125 C 403.894531 322.128906 403.40625 324.628906 403.28125 327.203125 C 402.648438 339.832031 405.003906 352.808594 410.410156 364.269531 C 420.773438 386.246094 439.078125 402.84375 460.878906 413.132812 C 464.285156 414.742188 467.78125 416.359375 471.339844 417.613281 C 470.007812 414.554688 469.03125 411.328125 468.15625 408.113281 C 466.828125 403.253906 465.800781 398.226562 465.816406 393.167969 C 465.863281 380.222656 472.625 366.59375 481.710938 357.589844 C 490.398438 348.976562 502.121094 343.890625 514.386719 343.980469 C 522.527344 344.039062 531.140625 347.25 536.886719 353.097656 C 542.851562 359.171875 547.292969 368.046875 547.195312 376.6875 C 547.160156 379.582031 546.496094 382.839844 544.78125 385.230469 C 544.28125 385.925781 543.617188 386.527344 543.007812 387.125 C 543.492188 386.175781 544.265625 385.363281 544.699219 384.414062 C 545.445312 382.789062 545.414062 380.183594 545.355469 378.433594 C 544.792969 375.046875 543.875 371.957031 542.3125 368.882812 C 538.425781 361.210938 531.484375 355.113281 523.296875 352.503906 C 514.636719 349.742188 504.578125 351.082031 496.582031 355.234375 C 484.765625 361.371094 476.023438 372.796875 472.089844 385.417969 C 467.449219 400.300781 470.71875 415.675781 477.816406 429.15625 C 470.070312 427.757812 462.265625 425.703125 454.953125 422.773438 C 432.179688 413.648438 412.113281 395.765625 402.585938 372.910156 C 398.785156 363.796875 396.371094 353.222656 397.195312 343.3125 Z M 404.425781 442.414062 C 401.828125 438.945312 399.515625 435.324219 397.753906 431.347656 C 395.484375 426.21875 394.070312 420.628906 392.890625 415.15625 C 395.429688 419.738281 398.304688 424.40625 401.597656 428.488281 C 403.792969 431.203125 406.316406 433.699219 408.867188 436.074219 C 415.015625 441.800781 421.902344 446.761719 429.363281 450.636719 C 447.113281 459.855469 468.007812 463.035156 487.777344 460.246094 C 495.394531 459.171875 502.851562 457.132812 510.175781 454.820312 C 514.050781 456.9375 518.605469 457.894531 522.820312 459.082031 C 520.898438 459.910156 519.019531 461.203125 517.203125 462.261719 C 509.148438 466.632812 500.636719 469.820312 491.691406 471.800781 C 468.246094 476.996094 443.082031 472.773438 422.863281 459.746094 C 415.683594 455.121094 409.53125 449.234375 404.425781 442.414062 Z M 494.105469 414.15625 C 495.070312 423.902344 499.035156 433.597656 505.132812 441.265625 C 508.195312 445.117188 511.863281 448.480469 515.671875 451.582031 C 521.609375 455.964844 528.835938 458.945312 536.097656 460.179688 C 533.417969 460.570312 531.09375 460.171875 528.449219 459.691406 C 521.8125 458.480469 514.738281 456.269531 509.195312 452.324219 C 497.671875 444.121094 490.078125 430.285156 487.898438 416.472656 C 486.070312 404.90625 488.75 392.179688 495.761719 382.730469 C 500.3125 376.59375 506.878906 372.410156 514.253906 370.5625 C 515.765625 370.183594 517.300781 370.027344 518.839844 369.804688 C 523.902344 369.179688 529.957031 370.691406 534.429688 373.027344 C 537.300781 374.53125 540.253906 376.671875 542.03125 379.429688 C 542.382812 379.972656 542.792969 380.558594 542.976562 381.179688 L 543.027344 381.363281 C 543.351562 382.445312 543.472656 383.632812 543.054688 384.710938 C 542.835938 383.964844 542.804688 383.191406 542.648438 382.433594 C 542.296875 380.699219 540.75 379.558594 539.472656 378.488281 C 534.617188 374.417969 528.769531 374.09375 522.722656 374.632812 C 514.875 375.332031 507.0625 380.128906 502.105469 386.132812 C 495.886719 393.671875 493.148438 404.5 494.105469 414.15625 Z M 425.679688 479.632812 C 422.566406 476.667969 419.597656 473.375 417.203125 469.796875 L 413.957031 464.574219 C 416.820312 467.074219 419.734375 469.597656 422.898438 471.71875 C 435.519531 480.171875 450.992188 484.960938 466.132812 485.703125 C 492.238281 486.976562 517.582031 477.6875 536.90625 460.144531 L 550.472656 460.257812 L 546.632812 464.988281 C 529.652344 484.066406 505.746094 496.503906 480.089844 497.890625 C 460.589844 498.945312 440.273438 492.851562 425.675781 479.632812 Z M 454.484375 507.632812 L 448.414062 502.859375 L 453.015625 504.738281 C 460.902344 507.597656 469.199219 508.949219 477.566406 509.171875 C 503.121094 509.847656 527.625 499.484375 545.644531 481.449219 C 549.402344 477.6875 552.917969 473.617188 556.085938 469.339844 L 559.179688 464.996094 L 562.574219 459.761719 C 562.867188 459.304688 563.300781 458.316406 563.671875 458.015625 C 563.84375 457.871094 564.375 457.742188 564.597656 457.65625 L 567.472656 456.511719 L 576.433594 452.339844 L 576.703125 452.394531 C 576.46875 454.117188 575.644531 455.742188 575.007812 457.34375 C 571.769531 465.527344 567.652344 473.464844 562.550781 480.652344 C 548.398438 500.601562 526.710938 513.894531 502.675781 518.003906 C 486.058594 520.847656 468.292969 517.441406 454.484375 507.632812 Z M 593.566406 516.4375 C 587.417969 521.871094 580.636719 526.3125 572.960938 529.277344 C 567.007812 531.574219 560.757812 532.851562 554.445312 533.632812 L 547.742188 534.226562 C 548.683594 533.679688 550.019531 533.433594 551.058594 533.078125 C 553.378906 532.28125 555.746094 531.402344 557.988281 530.402344 C 569.378906 525.308594 580.363281 517.277344 588.367188 507.675781 C 602.007812 491.316406 609.195312 469.453125 608.894531 448.238281 C 608.816406 442.945312 608.328125 437.554688 607.621094 432.3125 C 607.339844 430.246094 606.914062 428.15625 606.734375 426.082031 C 606.683594 425.46875 606.570312 424.90625 606.429688 424.308594 C 606.390625 424.148438 606.203125 423.621094 606.226562 423.476562 C 606.257812 423.304688 606.625 422.84375 606.726562 422.683594 L 608.421875 419.941406 C 609.855469 417.429688 611.066406 414.746094 612.363281 412.160156 C 613.347656 413.90625 613.914062 415.820312 614.589844 417.699219 C 617.214844 425.003906 619.535156 432.769531 620.484375 440.492188 C 623.359375 463.914062 618.160156 487.292969 603.519531 506.066406 C 600.59375 509.816406 597.128906 513.292969 593.566406 516.4375 Z M 614.429688 515.429688 C 610.558594 517.808594 606.390625 519.46875 602.21875 521.21875 C 607.859375 516.214844 613.203125 511.253906 617.578125 505.078125 C 630.902344 486.265625 635.476562 462.316406 631.546875 439.746094 C 630.285156 432.492188 627.863281 425.441406 624.964844 418.695312 C 623.722656 415.808594 622.273438 412.992188 620.753906 410.242188 L 617.578125 404.839844 C 616.785156 403.535156 615.769531 402.265625 615.527344 400.730469 L 615.496094 400.519531 L 614.8125 403.769531 C 612.488281 414.1875 604.867188 422.875 596.007812 428.503906 C 583.890625 436.210938 569.5 440.109375 555.296875 436.921875 C 545.59375 434.746094 536.640625 428.976562 531.320312 420.480469 C 527.773438 414.816406 526.105469 407.980469 526.792969 401.308594 C 526.976562 399.558594 527.433594 397.9375 527.804688 396.234375 C 528.078125 394.976562 528.558594 393.785156 529.015625 392.582031 C 530.769531 388.644531 533.117188 385.015625 536.421875 382.191406 C 534.570312 382.851562 532.734375 383.761719 531.171875 384.964844 C 525.417969 389.398438 522.175781 397.726562 521.371094 404.742188 C 520.308594 414.007812 523.589844 422.121094 529.3125 429.238281 C 536.699219 438.421875 548.570312 443.101562 560.011719 444.273438 C 575.339844 445.84375 590.613281 439.898438 602.359375 430.316406 C 601.8125 431.921875 599.722656 433.847656 598.609375 435.167969 C 598.847656 437.300781 598.769531 439.472656 598.761719 441.617188 C 598.726562 450.277344 597.625 458.921875 595.328125 467.277344 C 589.109375 489.902344 574.828125 509.394531 554.28125 521.019531 C 541.277344 528.378906 526.402344 533.054688 511.359375 531.15625 C 506.546875 530.546875 501.878906 529.277344 497.214844 527.992188 C 516.589844 528.566406 536.25 521.324219 551.421875 509.460938 C 561.632812 501.476562 570.222656 491.558594 576.457031 480.175781 C 578.957031 475.613281 580.9375 470.882812 582.730469 466.007812 C 585.101562 459.558594 586.9375 452.734375 587.851562 445.917969 C 587.914062 445.453125 588.078125 444.605469 588.398438 444.257812 C 589.351562 443.214844 590.984375 442.210938 592.109375 441.332031 L 592.035156 441.15625 C 588.003906 444.230469 583.632812 446.417969 578.824219 448.019531 C 565.800781 452.367188 550.617188 450.972656 538.417969 444.828125 C 528 439.585938 519.515625 430.507812 515.890625 419.347656 C 513.378906 411.628906 514.59375 403.191406 518.261719 396.070312 C 521.417969 389.941406 527.023438 383.8125 533.757812 381.707031 C 535.84375 381.054688 538.6875 380.570312 540.671875 381.625 L 540.871094 381.734375 L 541.019531 381.625 C 539.117188 380.121094 536.320312 379.453125 533.925781 379.640625 C 526.554688 380.207031 519.785156 385.324219 515.210938 390.84375 C 509.851562 397.320312 507.171875 405.320312 507.96875 413.722656 C 509.078125 425.414062 515.125 435.726562 524.109375 443.15625 C 534.230469 451.53125 547.261719 456.273438 560.457031 455.730469 C 562.738281 455.636719 565.160156 455.488281 567.40625 455.117188 C 568.597656 454.917969 569.753906 454.53125 570.957031 454.417969 C 564.703125 457.203125 557.5 459.828125 550.566406 459.496094 C 536.003906 458.796875 522.605469 451.496094 512.976562 440.777344 C 504.679688 431.539062 500.175781 419.75 500.894531 407.300781 C 501.359375 399.273438 505.488281 391.027344 511.484375 385.722656 C 516.855469 380.96875 524.917969 377.417969 532.195312 377.902344 C 535.578125 378.128906 539.644531 379.140625 541.882812 381.878906 C 542.703125 382.878906 542.589844 384.304688 542.46875 385.503906 C 542.230469 385.910156 542.039062 386.09375 541.640625 386.351562 L 541.519531 386.429688 L 541.519531 386.542969 C 541.867188 386.578125 542.140625 386.394531 542.40625 386.167969 C 543.148438 385.542969 543.726562 384.453125 543.785156 383.480469 C 544.011719 379.878906 542.082031 376.414062 539.765625 373.773438 C 534.730469 368.050781 527.144531 364.683594 519.589844 364.222656 C 510.9375 363.695312 502.324219 366.605469 495.839844 372.394531 C 487.042969 380.257812 481.78125 391.964844 481.125 403.695312 C 480.359375 417.304688 483.71875 430.90625 492.320312 441.699219 C 494.160156 444.011719 496.425781 445.824219 498.367188 448.007812 L 498.152344 448.070312 C 496.898438 448.429688 495.535156 448.578125 494.246094 448.757812 L 486.097656 449.601562 C 479.257812 450.089844 472.417969 450.125 465.589844 449.3125 C 452.796875 447.789062 440.414062 443.550781 429.210938 437.214844 C 420.535156 432.3125 412.386719 425.75 406.105469 417.976562 C 402.203125 413.148438 399.023438 407.859375 396.3125 402.285156 C 394.480469 398.523438 392.652344 394.359375 391.59375 390.304688 C 390.21875 385.039062 389.671875 379.753906 390.09375 374.300781 L 390.886719 366.042969 C 391.773438 369.558594 392.484375 373.117188 393.589844 376.570312 C 397.582031 389.042969 404.667969 400.542969 413.859375 409.867188 C 433.195312 429.488281 459.53125 439.417969 486.914062 439.59375 C 485.089844 437.132812 483.285156 434.65625 481.785156 431.980469 C 479.300781 427.550781 477.417969 422.449219 476.222656 417.515625 C 473.011719 404.269531 475.433594 389.511719 482.492188 377.867188 C 488.144531 368.542969 496.425781 361.183594 507.199219 358.5625 C 514.980469 356.671875 523.738281 358.101562 530.566406 362.3125 C 536.96875 366.257812 542.304688 371.453125 544.136719 378.957031 C 544.472656 380.328125 544.566406 381.847656 544.320312 383.25 C 544.128906 384.363281 543.441406 386.425781 542.453125 387.042969 C 541.75 387.484375 540.628906 387.703125 539.816406 387.503906 C 538.390625 387.152344 537.917969 386.332031 537.773438 384.9375 C 537.730469 384.488281 537.753906 383.90625 537.519531 383.527344 C 537.378906 384.628906 537.675781 385.714844 537.867188 386.796875 C 538.722656 387.324219 539.632812 388.027344 540.65625 387.894531 C 542.804688 387.617188 544.863281 386.609375 546.152344 384.828125 C 547.332031 383.203125 548.015625 381.214844 548.546875 379.296875 C 549.367188 376.332031 549.949219 373.097656 549.859375 370.011719 C 549.808594 368.195312 549.421875 366.496094 549.1875 364.710938 C 549.101562 364.050781 548.878906 363.457031 548.730469 362.808594 C 547.707031 358.335938 545.234375 353.644531 542.367188 350.082031 C 536.289062 342.527344 527.855469 338.339844 518.269531 337.351562 C 505.585938 336.046875 492.847656 340.3125 483.015625 348.367188 C 473.246094 356.371094 465.957031 367.835938 464.652344 380.554688 C 462.347656 378.777344 460.269531 375.992188 458.414062 373.738281 C 451.257812 365.058594 445.414062 355.570312 441.253906 345.097656 L 439.191406 339.183594 C 438.300781 336.691406 437.773438 334 437.203125 331.421875 C 433.578125 315.019531 434.699219 297.394531 442 282.078125 C 447.476562 270.589844 455.09375 260.117188 465.941406 253.179688 C 469.941406 250.621094 474.203125 248.691406 478.664062 247.109375 C 476.992188 248.378906 475.320312 249.621094 473.765625 251.039062 C 462.121094 261.695312 453.464844 276.941406 449.921875 292.28125 C 445.242188 312.515625 448.4375 334.851562 457.410156 353.507812 C 459.773438 358.429688 462.667969 362.855469 465.554688 367.464844 C 466.324219 363.714844 467.820312 360.226562 469.484375 356.792969 C 470.863281 353.9375 472.792969 351.324219 474.8125 348.894531 C 480.636719 341.890625 488.269531 336.457031 496.910156 333.472656 C 509.269531 329.199219 522.195312 328.789062 534.15625 334.640625 C 542.453125 338.695312 549.628906 345.402344 552.652344 354.296875 C 555.359375 362.246094 554.929688 371.957031 551.207031 379.507812 C 549.679688 382.605469 547.039062 386.652344 543.691406 387.9375 C 542.582031 388.363281 541.394531 388.339844 540.292969 388.714844 C 540.769531 388.921875 541.023438 389.027344 541.546875 388.875 L 542.90625 388.574219 C 547.792969 387.582031 551.652344 382.984375 554.257812 379.007812 C 558.332031 372.792969 560.332031 365.503906 559.585938 358.101562 C 559.511719 357.390625 559.515625 356.660156 559.363281 355.960938 L 558.898438 353.652344 C 558.03125 348.804688 555.410156 344.039062 552.417969 340.175781 C 545.359375 331.066406 533.53125 325.519531 522.253906 324.117188 C 507.425781 322.265625 492.789062 326.984375 481.125 336.109375 C 481.386719 334.949219 482.773438 334.175781 483.125 333.09375 C 482.898438 333.257812 482.839844 333.28125 482.550781 333.34375 L 482.445312 332.636719 C 482.035156 328.085938 482.164062 323.523438 482.453125 318.972656 C 483.703125 299.308594 491.652344 280.226562 504.476562 265.296875 C 514.226562 253.949219 527.085938 244.859375 541.339844 240.15625 C 547.957031 237.972656 554.730469 236.796875 561.660156 236.265625 C 569.445312 235.832031 577.8125 238.210938 585.09375 240.761719 C 582.535156 240.902344 579.902344 240.644531 577.328125 240.730469 C 571.832031 240.921875 566.246094 241.816406 560.917969 243.152344 C 550.472656 245.773438 540.476562 250.902344 531.820312 257.234375 C 522.039062 264.386719 513.554688 273.019531 507.019531 283.261719 C 505.59375 285.492188 504.378906 287.792969 503.144531 290.128906 C 500.773438 294.601562 498.660156 299.289062 497.113281 304.117188 C 495.511719 309.117188 494.273438 314.234375 493.269531 319.390625 C 493.121094 320.15625 492.761719 323.847656 492.476562 324.183594 C 491.96875 324.789062 490.792969 325.429688 490.140625 325.960938 L 490.191406 326.125 C 494.769531 323.023438 500.324219 320.628906 505.65625 319.195312 C 519.445312 315.496094 534.03125 318.589844 546.238281 325.539062 C 555.046875 330.554688 562.644531 339.96875 565.289062 349.808594 C 567.574219 358.296875 566.195312 367.140625 561.785156 374.695312 C 557.828125 381.476562 552.820312 386.730469 545.074219 388.855469 C 544.097656 389.125 543.117188 389.195312 542.105469 389.152344 C 541.835938 389.140625 541.980469 389.109375 541.710938 389.257812 L 542.796875 389.496094 C 546.867188 390.0625 551.015625 388.492188 554.613281 386.738281 C 556.277344 385.925781 558 385.023438 559.488281 383.914062 C 565.070312 379.738281 569.539062 373.632812 571.652344 366.980469 C 572.222656 365.175781 572.554688 363.207031 572.847656 361.332031 C 573.664062 356.132812 572.695312 350.441406 571.050781 345.496094 C 567.0625 333.492188 557.476562 323.84375 546.339844 318.222656 C 535.816406 312.914062 523.472656 311.261719 511.921875 313.59375 C 509.300781 314.125 506.6875 314.960938 504.144531 315.792969 C 507.886719 303.027344 514.980469 291.125 523.582031 281.054688 C 535.761719 266.796875 552.410156 256.152344 570.6875 251.78125 C 574.894531 250.773438 579.25 250.265625 583.554688 249.933594 C 593.980469 249.128906 604.722656 249.992188 614.480469 253.960938 C 621.210938 256.703125 627.15625 260.726562 632.648438 265.433594 C 624.210938 261.539062 614.917969 259.304688 605.65625 258.578125 C 598.890625 258.046875 592.21875 258.699219 585.570312 259.957031 C 563.496094 264.128906 543.820312 275.660156 529.394531 292.890625 L 522.492188 301.933594 L 519.734375 306.203125 C 518.863281 307.65625 518.101562 309.488281 516.785156 310.585938 L 516.628906 310.710938 L 526.648438 308.902344 C 533.714844 308.136719 540.789062 309.976562 547.261719 312.679688 C 551.835938 314.589844 556.164062 316.9375 560.128906 319.914062 C 570.648438 327.8125 578.257812 339.574219 580.09375 352.6875 C 581.324219 361.457031 578.757812 371.015625 573.421875 378.054688 C 568.191406 384.953125 560.128906 389.855469 551.523438 391.046875 C 548.007812 391.535156 543.769531 391.640625 540.679688 389.609375 C 539.851562 389.066406 539.121094 388.203125 538.296875 387.582031 C 539.332031 389.082031 540.609375 390.230469 542.195312 391.136719 C 548.058594 394.5 556.222656 394.308594 562.585938 392.554688 C 571.453125 390.113281 578.179688 384.402344 582.660156 376.457031 C 587.046875 368.667969 587.753906 358.769531 586.300781 350.097656 C 585.917969 347.828125 585.203125 345.710938 584.613281 343.507812 C 583.941406 341.007812 582.828125 338.570312 581.648438 336.273438 C 579.933594 332.929688 577.871094 329.5 575.546875 326.550781 C 569.800781 319.273438 562.128906 313.710938 553.675781 309.972656 C 551.484375 309.003906 549.136719 308.28125 546.855469 307.546875 C 552.367188 307.535156 557.539062 308.160156 562.738281 310.054688 C 566.945312 311.589844 570.4375 314.050781 573.765625 316.996094 C 579.9375 322.457031 584.929688 329.175781 588.398438 336.644531 C 594.003906 348.714844 595.496094 362.773438 590.828125 375.398438 C 587.648438 383.996094 581.550781 391.355469 573.128906 395.203125 C 565.195312 398.828125 555.386719 399.144531 547.234375 396.03125 C 544.59375 395.023438 542.082031 393.277344 540.074219 391.300781 C 539.351562 390.589844 538.5 389.679688 538.089844 388.742188 C 537.691406 387.828125 537.472656 386.917969 537.125 385.992188 L 537.011719 386.070312 C 537.316406 389.089844 538.589844 391.898438 540.652344 394.128906 C 541.953125 395.539062 543.589844 396.773438 545.167969 397.859375 C 550.203125 401.328125 555.769531 403.335938 561.917969 403.53125 C 570.925781 403.8125 579.585938 401.097656 586.21875 394.789062 C 594.992188 386.449219 599.378906 374.285156 599.671875 362.34375 C 599.988281 349.636719 596.398438 337.464844 589.019531 327.089844 C 587.769531 325.332031 586.554688 323.535156 585.066406 321.964844 L 585.207031 321.992188 C 586.351562 322.472656 587.769531 323.890625 588.808594 324.667969 C 590.542969 325.96875 592.476562 327.308594 594 328.851562 C 598.015625 332.910156 600.988281 338.984375 602.773438 344.347656 C 604.304688 348.949219 605.449219 353.785156 605.789062 358.636719 C 606.46875 368.265625 604.507812 378.566406 600.164062 387.203125 C 595.234375 396.996094 587.164062 405.207031 576.570312 408.65625 C 568.238281 411.371094 559.253906 410.890625 551.425781 406.859375 C 545.609375 403.867188 539.511719 398.875 537.511719 392.382812 C 536.742188 389.882812 536.386719 387.472656 536.792969 384.859375 L 536.589844 384.941406 C 535.996094 388.46875 535.453125 391.800781 536.296875 395.363281 C 538.054688 402.769531 543.910156 408.742188 550.210938 412.628906 C 557.554688 417.164062 567.398438 418.308594 575.714844 416.28125 C 587.304688 413.460938 597.15625 405 603.226562 394.902344 C 609.808594 383.957031 612.222656 369.691406 610.210938 357.132812 C 609.65625 353.691406 608.472656 350.433594 607.628906 347.0625 C 608.140625 347.828125 608.519531 348.648438 608.964844 349.453125 C 610.910156 352.945312 612.441406 356.269531 613.375 360.1875 C 614.039062 362.972656 614.648438 365.835938 614.886719 368.691406 C 615.804688 379.75 612.933594 391.183594 607.105469 400.621094 C 600.28125 411.664062 588.910156 420.378906 576.210938 423.339844 C 567.160156 425.449219 556.886719 424.621094 548.910156 419.574219 C 542.085938 415.253906 537.019531 408.878906 535.277344 400.921875 C 534.175781 395.894531 533.972656 391.015625 535.757812 386.132812 C 536.070312 385.28125 536.3125 384.382812 536.8125 383.617188 C 537.089844 383.191406 537.296875 382.792969 537.492188 382.324219 C 536.570312 383.335938 535.597656 384.355469 534.824219 385.484375 C 533.527344 387.375 532.605469 389.804688 531.988281 392.003906 C 530.011719 399.085938 531.390625 407.753906 535.011719 414.09375 C 539.707031 422.308594 546.8125 427.476562 555.890625 429.914062 C 567.785156 433.105469 580.867188 430.507812 591.382812 424.398438 C 600.289062 419.222656 608.148438 411.050781 612.796875 401.851562 C 614.835938 397.816406 616.238281 393.628906 617.402344 389.273438 C 620.03125 391.492188 622.234375 394.195312 624.378906 396.871094 C 630.164062 404.101562 635.003906 411.664062 638.613281 420.214844 C 640.6875 425.121094 642.457031 430.1875 643.644531 435.382812 C 647.402344 451.832031 645.957031 468.613281 639.578125 484.226562 C 634.644531 496.300781 625.675781 508.519531 614.425781 515.429688 Z M 657.371094 478.46875 C 655.28125 481.746094 652.898438 484.683594 650.371094 487.625 L 644.335938 493.480469 C 650.882812 482.917969 655.761719 471.007812 657.003906 458.570312 C 657.589844 452.714844 657.246094 446.449219 656.449219 440.636719 C 655.816406 435.996094 654.679688 431.335938 653.226562 426.894531 C 650.445312 418.375 646.796875 410.164062 641.878906 402.640625 C 635.316406 392.601562 626.824219 384.277344 617.421875 376.921875 C 617.214844 376.761719 616.835938 376.539062 616.734375 376.304688 C 616.492188 375.738281 616.464844 374.789062 616.417969 374.167969 L 616.042969 370.792969 L 614.6875 362.84375 C 621.824219 366.871094 628.355469 371.167969 634.589844 376.496094 C 651.980469 391.359375 666.117188 413.441406 667.917969 436.648438 C 669.050781 451.25 665.253906 466.132812 657.371094 478.46875 Z M 682.425781 433.441406 C 681.527344 437.703125 680.027344 441.78125 678.332031 445.78125 L 675.992188 450.421875 L 676.742188 446.914062 C 677.859375 440.996094 677.914062 434.660156 677.28125 428.671875 C 676.480469 421.082031 674.851562 413.738281 671.914062 406.65625 C 668.945312 399.5 664.761719 393.050781 659.957031 387 C 651.789062 376.699219 641.992188 367.910156 630.914062 360.84375 C 628.113281 359.054688 625.222656 357.367188 622.214844 355.945312 L 614.148438 352.363281 L 611.15625 351.230469 C 610.902344 351.132812 610.269531 350.972656 610.078125 350.808594 C 609.761719 350.546875 609.464844 349.792969 609.273438 349.417969 L 607.378906 345.765625 C 606.203125 343.53125 604.960938 341.160156 603.542969 339.078125 C 606.035156 339.304688 608.644531 340.003906 611.058594 340.628906 C 616.753906 342.105469 622.289062 343.96875 627.703125 346.265625 C 636.808594 350.128906 645.097656 355.367188 652.707031 361.671875 C 657.214844 365.40625 661.640625 369.5 665.410156 373.988281 C 670.714844 380.304688 674.882812 387.457031 677.960938 395.101562 C 682.78125 407.078125 685.121094 420.675781 682.425781 433.441406 Z M 690.183594 402.652344 L 687.882812 393.792969 C 687.757812 393.179688 687.503906 392.578125 687.332031 391.972656 C 686.117188 387.636719 684.226562 383.351562 682.167969 379.359375 C 669.597656 354.964844 644.578125 337.96875 618.246094 331.71875 C 614.359375 330.796875 610.441406 330.121094 606.480469 329.632812 L 598.816406 328.886719 C 597.445312 328.777344 595.410156 328.902344 594.140625 328.378906 C 593.476562 328.101562 592.835938 327.476562 592.273438 327.023438 L 588.890625 324.269531 L 582.808594 319.519531 L 594.222656 318.417969 C 595.898438 318.230469 597.640625 318.328125 599.324219 318.335938 L 607.394531 318.40625 C 610.566406 318.480469 613.777344 319.027344 616.914062 319.496094 C 637.597656 322.59375 657.527344 332.121094 671.972656 347.367188 C 679.636719 355.457031 685.40625 365.863281 688.679688 376.472656 C 689.710938 379.824219 690.617188 383.421875 690.855469 386.929688 C 691.21875 392.277344 690.332031 397.351562 690.183594 402.652344 Z M 690.183594 402.652344 "/></g><g clip-rule="nonzero" clip-path="url(#174d62f2e3)"><path style=" stroke:none;fill-rule:nonzero;fill:#f8e0ea;fill-opacity:1;" d="M 798.472656 372.671875 C 798.472656 376.816406 798.371094 380.960938 798.167969 385.101562 C 797.964844 389.246094 797.660156 393.378906 797.253906 397.503906 C 796.847656 401.632812 796.339844 405.746094 795.730469 409.847656 C 795.121094 413.949219 794.414062 418.035156 793.605469 422.101562 C 792.792969 426.167969 791.886719 430.210938 790.878906 434.234375 C 789.871094 438.257812 788.765625 442.253906 787.5625 446.21875 C 786.359375 450.1875 785.058594 454.125 783.660156 458.027344 C 782.265625 461.933594 780.773438 465.800781 779.183594 469.632812 C 777.597656 473.460938 775.917969 477.253906 774.144531 481 C 772.371094 484.75 770.507812 488.453125 768.554688 492.109375 C 766.601562 495.765625 764.554688 499.371094 762.425781 502.929688 C 760.292969 506.484375 758.074219 509.988281 755.769531 513.4375 C 753.46875 516.882812 751.082031 520.273438 748.609375 523.605469 C 746.140625 526.933594 743.589844 530.203125 740.960938 533.40625 C 738.328125 536.613281 735.621094 539.75 732.835938 542.824219 C 730.050781 545.898438 727.195312 548.898438 724.261719 551.832031 C 721.328125 554.761719 718.328125 557.621094 715.253906 560.40625 C 712.183594 563.191406 709.042969 565.898438 705.839844 568.527344 C 702.632812 571.160156 699.363281 573.710938 696.035156 576.179688 C 692.703125 578.652344 689.3125 581.039062 685.867188 583.339844 C 682.417969 585.644531 678.917969 587.863281 675.359375 589.996094 C 671.804688 592.125 668.195312 594.167969 664.539062 596.125 C 660.882812 598.078125 657.179688 599.941406 653.429688 601.714844 C 649.683594 603.488281 645.894531 605.167969 642.0625 606.753906 C 638.230469 608.34375 634.363281 609.832031 630.460938 611.230469 C 626.554688 612.628906 622.617188 613.929688 618.652344 615.132812 C 614.683594 616.335938 610.6875 617.441406 606.664062 618.449219 C 602.644531 619.457031 598.597656 620.363281 594.53125 621.171875 C 590.464844 621.980469 586.378906 622.691406 582.277344 623.300781 C 578.175781 623.90625 574.0625 624.414062 569.9375 624.820312 C 565.808594 625.226562 561.675781 625.53125 557.535156 625.738281 C 553.390625 625.941406 549.246094 626.042969 545.101562 626.042969 C 540.953125 626.042969 536.808594 625.941406 532.667969 625.738281 C 528.527344 625.53125 524.394531 625.226562 520.265625 624.820312 C 516.140625 624.414062 512.027344 623.90625 507.925781 623.300781 C 503.820312 622.691406 499.738281 621.980469 495.671875 621.171875 C 491.605469 620.363281 487.558594 619.457031 483.535156 618.449219 C 479.515625 617.441406 475.519531 616.335938 471.550781 615.132812 C 467.582031 613.929688 463.648438 612.628906 459.742188 611.230469 C 455.839844 609.832031 451.972656 608.34375 448.140625 606.753906 C 444.308594 605.167969 440.519531 603.488281 436.769531 601.714844 C 433.023438 599.941406 429.320312 598.078125 425.664062 596.125 C 422.007812 594.167969 418.398438 592.125 414.84375 589.996094 C 411.285156 587.863281 407.785156 585.644531 404.335938 583.339844 C 400.886719 581.039062 397.5 578.648438 394.167969 576.179688 C 390.835938 573.710938 387.570312 571.160156 384.363281 568.527344 C 381.160156 565.898438 378.019531 563.191406 374.949219 560.40625 C 371.875 557.621094 368.871094 554.761719 365.941406 551.832031 C 363.007812 548.898438 360.148438 545.898438 357.367188 542.824219 C 354.582031 539.75 351.875 536.613281 349.242188 533.40625 C 346.613281 530.203125 344.0625 526.933594 341.589844 523.605469 C 339.121094 520.273438 336.734375 516.882812 334.429688 513.4375 C 332.128906 509.988281 329.910156 506.484375 327.777344 502.929688 C 325.644531 499.371094 323.601562 495.765625 321.648438 492.109375 C 319.691406 488.453125 317.828125 484.75 316.054688 481 C 314.285156 477.253906 312.605469 473.460938 311.015625 469.632812 C 309.429688 465.800781 307.9375 461.933594 306.542969 458.027344 C 305.144531 454.125 303.84375 450.1875 302.640625 446.21875 C 301.4375 442.253906 300.332031 438.257812 299.324219 434.234375 C 298.316406 430.210938 297.40625 426.167969 296.597656 422.101562 C 295.789062 418.035156 295.082031 413.949219 294.472656 409.847656 C 293.863281 405.746094 293.355469 401.632812 292.949219 397.503906 C 292.542969 393.378906 292.238281 389.246094 292.035156 385.101562 C 291.832031 380.960938 291.730469 376.816406 291.730469 372.671875 C 291.730469 368.523438 291.832031 364.378906 292.035156 360.238281 C 292.238281 356.097656 292.542969 351.960938 292.949219 347.835938 C 293.355469 343.710938 293.863281 339.59375 294.472656 335.492188 C 295.082031 331.390625 295.789062 327.308594 296.597656 323.242188 C 297.40625 319.171875 298.316406 315.128906 299.324219 311.105469 C 300.332031 307.085938 301.4375 303.089844 302.640625 299.121094 C 303.84375 295.152344 305.144531 291.21875 306.542969 287.3125 C 307.9375 283.410156 309.429688 279.539062 311.015625 275.710938 C 312.605469 271.878906 314.285156 268.089844 316.054688 264.339844 C 317.828125 260.59375 319.691406 256.890625 321.648438 253.234375 C 323.601562 249.574219 325.644531 245.96875 327.777344 242.410156 C 329.910156 238.855469 332.128906 235.351562 334.429688 231.90625 C 336.734375 228.457031 339.121094 225.070312 341.589844 221.738281 C 344.0625 218.40625 346.613281 215.140625 349.242188 211.933594 C 351.875 208.726562 354.582031 205.589844 357.367188 202.515625 C 360.148438 199.445312 363.007812 196.441406 365.941406 193.511719 C 368.871094 190.578125 371.875 187.71875 374.949219 184.933594 C 378.019531 182.152344 381.160156 179.441406 384.363281 176.8125 C 387.570312 174.183594 390.835938 171.632812 394.167969 169.160156 C 397.5 166.691406 400.886719 164.304688 404.335938 162 C 407.785156 159.695312 411.285156 157.480469 414.84375 155.347656 C 418.398438 153.214844 422.007812 151.171875 425.664062 149.21875 C 429.320312 147.261719 433.023438 145.398438 436.769531 143.625 C 440.519531 141.851562 444.308594 140.171875 448.140625 138.585938 C 451.972656 137 455.839844 135.507812 459.742188 134.109375 C 463.648438 132.714844 467.582031 131.414062 471.550781 130.210938 C 475.519531 129.007812 479.515625 127.902344 483.535156 126.894531 C 487.558594 125.886719 491.605469 124.976562 495.671875 124.167969 C 499.738281 123.359375 503.820312 122.652344 507.925781 122.042969 C 512.027344 121.433594 516.140625 120.925781 520.265625 120.519531 C 524.394531 120.113281 528.527344 119.808594 532.667969 119.605469 C 536.808594 119.402344 540.953125 119.300781 545.101562 119.300781 C 549.246094 119.300781 553.390625 119.402344 557.535156 119.605469 C 561.675781 119.808594 565.808594 120.113281 569.9375 120.519531 C 574.0625 120.925781 578.175781 121.433594 582.277344 122.042969 C 586.378906 122.652344 590.464844 123.359375 594.53125 124.167969 C 598.597656 124.976562 602.644531 125.886719 606.664062 126.894531 C 610.6875 127.902344 614.683594 129.007812 618.652344 130.210938 C 622.617188 131.414062 626.554688 132.714844 630.460938 134.109375 C 634.363281 135.507812 638.230469 137 642.0625 138.585938 C 645.894531 140.171875 649.683594 141.851562 653.429688 143.625 C 657.179688 145.398438 660.882812 147.261719 664.539062 149.21875 C 668.195312 151.171875 671.804688 153.214844 675.359375 155.347656 C 678.917969 157.480469 682.417969 159.695312 685.867188 162 C 689.3125 164.304688 692.703125 166.691406 696.035156 169.160156 C 699.363281 171.632812 702.632812 174.183594 705.839844 176.8125 C 709.042969 179.441406 712.183594 182.152344 715.253906 184.933594 C 718.328125 187.71875 721.328125 190.578125 724.261719 193.511719 C 727.195312 196.441406 730.050781 199.445312 732.835938 202.515625 C 735.621094 205.589844 738.328125 208.726562 740.960938 211.933594 C 743.589844 215.140625 746.140625 218.40625 748.609375 221.738281 C 751.082031 225.070312 753.46875 228.457031 755.769531 231.90625 C 758.074219 235.351562 760.292969 238.855469 762.425781 242.410156 C 764.554688 245.96875 766.601562 249.574219 768.554688 253.234375 C 770.507812 256.890625 772.371094 260.59375 774.144531 264.339844 C 775.917969 268.089844 777.597656 271.878906 779.183594 275.710938 C 780.773438 279.539062 782.265625 283.410156 783.660156 287.3125 C 785.058594 291.21875 786.359375 295.152344 787.5625 299.121094 C 788.765625 303.089844 789.871094 307.085938 790.878906 311.105469 C 791.886719 315.128906 792.792969 319.171875 793.605469 323.242188 C 794.414062 327.308594 795.121094 331.390625 795.730469 335.492188 C 796.339844 339.59375 796.847656 343.710938 797.253906 347.835938 C 797.660156 351.960938 797.964844 356.097656 798.167969 360.238281 C 798.371094 364.378906 798.472656 368.523438 798.472656 372.671875 Z M 798.472656 372.671875 "/></g><g clip-rule="nonzero" clip-path="url(#fcb475c98f)"><path style=" stroke:none;fill-rule:nonzero;fill:#d77594;fill-opacity:1;" d="M 747.796875 476.554688 C 773.136719 446.148438 788.335938 410.675781 798.472656 372.671875 C 798.472656 442.640625 770.105469 505.980469 724.261719 551.828125 L 723.726562 551.296875 C 669.253906 588.035156 600.84375 599.4375 536.234375 581.703125 C 465.289062 561.433594 409.546875 498.089844 408.28125 423.34375 C 407.015625 370.136719 443.753906 313.128906 499.496094 310.59375 C 521.03125 310.59375 542.566406 320.730469 551.433594 341 C 555.90625 352.617188 551.550781 362.964844 545.480469 372.507812 C 545.355469 372.53125 545.214844 372.558594 545.089844 372.570312 C 544.949219 370.492188 544.671875 368.414062 543.835938 366.335938 C 538.765625 348.601562 521.03125 339.734375 503.296875 342.265625 C 481.757812 346.066406 465.289062 360.003906 456.421875 379.003906 C 437.417969 417.011719 447.554688 458.816406 471.625 491.753906 C 502.027344 531.027344 547.636719 548.761719 594.507812 550.03125 C 654.050781 550.03125 708.527344 522.160156 747.796875 476.554688 Z M 747.796875 476.554688 "/></g><g clip-rule="nonzero" clip-path="url(#e196fd6daa)"><path style=" stroke:none;fill-rule:nonzero;fill:#d77594;fill-opacity:1;" d="M 723.726562 194.042969 C 788.335938 286.523438 773.136719 428.414062 670.519531 489.222656 C 614.777344 522.160156 538.765625 519.625 498.226562 462.617188 C 484.292969 442.347656 479.226562 419.542969 485.558594 396.742188 C 489.359375 381.539062 500.761719 371.402344 513.429688 366.335938 C 524.601562 361.675781 535.09375 367.285156 544.898438 372.605469 C 540.640625 373.265625 536.359375 373.898438 532.433594 375.203125 C 518.496094 381.539062 512.164062 398.007812 514.695312 413.210938 C 522.296875 455.015625 565.371094 475.285156 604.644531 470.21875 C 660.386719 462.617188 700.925781 419.542969 716.125 366.335938 C 732.597656 301.726562 712.324219 235.851562 667.984375 187.710938 C 633.78125 152.238281 593.242188 128.167969 545.101562 119.300781 C 615.070312 119.300781 678.414062 147.664062 724.261719 193.511719 Z M 723.726562 194.042969 "/></g><g clip-rule="nonzero" clip-path="url(#883857433f)"><path style=" stroke:none;fill-rule:nonzero;fill:#d77594;fill-opacity:1;" d="M 676.855469 285.257812 C 688.257812 324.53125 681.921875 367.601562 655.316406 399.273438 C 638.847656 419.542969 616.046875 433.480469 589.441406 434.746094 C 562.835938 434.746094 529.898438 414.476562 537.5 384.074219 C 539.996094 380.511719 542.679688 376.851562 545.125 373.0625 C 545.367188 377.15625 545.175781 381.246094 547.636719 385.339844 C 556.503906 399.273438 570.4375 405.609375 585.640625 403.074219 C 603.375 400.542969 617.3125 390.40625 626.179688 376.472656 C 636.316406 361.269531 642.648438 344.800781 642.648438 327.0625 C 641.382812 300.460938 633.78125 275.121094 617.3125 253.585938 C 581.839844 207.980469 526.097656 190.242188 471.625 196.578125 C 419.683594 204.179688 375.34375 229.515625 341.136719 268.789062 C 315.800781 299.191406 299.332031 334.664062 291.730469 372.671875 C 291.730469 302.765625 320.042969 239.472656 365.816406 193.640625 C 420.1875 157.214844 488.332031 145.96875 552.703125 163.640625 C 613.511719 181.375 659.117188 225.714844 676.855469 285.257812 Z M 676.855469 285.257812 "/></g><g clip-rule="nonzero" clip-path="url(#76cf4eaed8)"><path style=" stroke:none;fill-rule:nonzero;fill:#d77594;fill-opacity:1;" d="M 571.707031 261.1875 C 594.507812 280.191406 608.445312 308.0625 605.910156 338.464844 C 603.375 362.535156 580.574219 389.140625 555.234375 377.738281 C 552.003906 376.445312 548.6875 374.660156 545.292969 372.808594 C 545.355469 372.707031 545.417969 372.605469 545.480469 372.507812 C 549.257812 371.921875 553.019531 371.300781 556.503906 370.136719 C 574.238281 361.269531 576.773438 339.734375 572.972656 323.261719 C 565.371094 296.660156 540.035156 280.191406 513.429688 276.390625 C 474.15625 270.054688 438.683594 285.257812 412.082031 311.863281 C 371.542969 353.667969 358.875 413.210938 372.808594 468.953125 C 394.34375 551.296875 464.023438 610.839844 545.101562 626.042969 C 474.589844 626.042969 410.800781 597.234375 364.878906 550.753906 C 344.796875 517.953125 332.242188 481.417969 327.203125 443.613281 C 323.402344 400.542969 333.535156 358.734375 355.074219 319.460938 C 388.011719 263.722656 447.554688 228.25 512.164062 237.117188 C 533.699219 240.917969 553.96875 247.253906 571.707031 261.1875 Z M 571.707031 261.1875 "/></g></g></svg>