<svg width="397" height="397" viewBox="0 0 397 397" fill="none" xmlns="http://www.w3.org/2000/svg">
<g filter="url(#filter0_f_40_14)">
<circle cx="198.5" cy="198.5" r="150.5" fill="#3B2F54"/>
</g>
<g filter="url(#filter1_f_40_14)">
<ellipse cx="195.5" cy="202" rx="115.5" ry="122" fill="#A688B5"/>
</g>
<path d="M145.32 217V183.496H157.512C160.616 183.496 162.984 184.344 164.616 186.04C166.248 187.736 167.064 190.104 167.064 193.144C167.064 196.184 166.248 198.552 164.616 200.248C162.984 201.944 160.616 202.792 157.512 202.792H149.352V217H145.32ZM149.352 199.288H157.416C159.112 199.288 160.424 198.872 161.352 198.04C162.312 197.176 162.792 195.96 162.792 194.392V191.896C162.792 190.328 162.312 189.128 161.352 188.296C160.424 187.432 159.112 187 157.416 187H149.352V199.288ZM175.541 217V183.496H179.573V213.496H195.461V217H175.541ZM221.651 217L218.819 207.448H207.059L204.227 217H200.051L210.323 183.496H215.651L225.923 217H221.651ZM213.155 187.768H212.723L208.019 203.944H217.859L213.155 187.768ZM239.728 217V203.848L228.16 183.496H232.768L237.568 192.232L241.648 199.864H241.84L246.016 192.232L250.816 183.496H255.328L243.76 203.848V217H239.728Z" fill="white"/>
<defs>
<filter id="filter0_f_40_14" x="0.200001" y="0.200001" width="396.6" height="396.6" filterUnits="userSpaceOnUse" color-interpolation-filters="sRGB">
<feFlood flood-opacity="0" result="BackgroundImageFix"/>
<feBlend mode="normal" in="SourceGraphic" in2="BackgroundImageFix" result="shape"/>
<feGaussianBlur stdDeviation="23.9" result="effect1_foregroundBlur_40_14"/>
</filter>
<filter id="filter1_f_40_14" x="32.2" y="32.2" width="326.6" height="339.6" filterUnits="userSpaceOnUse" color-interpolation-filters="sRGB">
<feFlood flood-opacity="0" result="BackgroundImageFix"/>
<feBlend mode="normal" in="SourceGraphic" in2="BackgroundImageFix" result="shape"/>
<feGaussianBlur stdDeviation="23.9" result="effect1_foregroundBlur_40_14"/>
</filter>
</defs>
</svg>
